<?xml version="1.0" standalone="no"?><!DOCTYPE svg PUBLIC "-//W3C//DTD SVG 1.1//EN" "http://www.w3.org/Graphics/SVG/1.1/DTD/svg11.dtd"><svg t="1545185619475" class="icon" style="" viewBox="0 0 1024 1024" version="1.1" xmlns="http://www.w3.org/2000/svg" p-id="2998" xmlns:xlink="http://www.w3.org/1999/xlink" width="128" height="128"><defs><style type="text/css"></style></defs><path d="M947.2 460.8 947.2 153.605427C947.2 68.846438 878.601933 0 793.981952 0L178.818048 0C94.869811 0 25.6 68.77184 25.6 153.606246L25.6 819.193754C25.6 904.394598 94.251622 972.8 178.937651 972.8L435.2 972.8 435.2 896 178.937651 896C136.542259 896 102.4 861.85431 102.4 819.193754L102.4 153.606246C102.4 111.427686 137.044787 76.8 178.818048 76.8L793.981952 76.8C836.11136 76.8 870.4 111.186893 870.4 153.605427L870.4 460.8 947.2 460.8ZM230.4 204.8 742.4 204.8 742.4 256 230.4 256 230.4 204.8ZM230.4 358.4 588.8 358.4 588.8 409.6 230.4 409.6 230.4 358.4ZM582.265242 861.412966 533.243238 921.601075 588.800819 977.157939 648.983194 928.13655C663.145523 936.034662 678.669261 942.570752 694.192435 947.200768L702.362624 1024 782.431488 1024 790.601728 947.200768C806.125466 942.570752 820.832461 936.034662 835.810355 928.13655L895.726541 977.157939 951.829402 921.601075 902.535373 861.412966C910.160896 847.252019 916.969165 832.000512 921.598054 816.476979L998.4 808.034202 998.4 727.966362 921.598054 719.796224C916.969165 704.272691 910.160896 689.838541 902.535373 674.860237L951.829402 614.672742 895.726541 558.570598 835.810355 607.864013C820.559821 600.237978 806.125466 593.429811 790.601728 588.800358L782.432102 512 702.363238 512 694.192998 588.800358C678.124595 593.429811 663.146138 600.238541 648.983808 607.864013L588.801382 558.570598 533.243853 614.672742 582.265805 674.860237C574.639667 689.839104 568.103475 704.272691 563.473971 719.796224L486.4 727.966362 486.4 808.034202 563.473408 816.476979C567.830835 831.999949 574.367642 847.252019 582.265242 861.412966ZM668.592333 768.000307C668.592333 747.030016 675.673805 729.600973 690.107597 715.166771 704.541952 700.732621 721.971763 693.651251 742.942362 693.651251 763.912294 693.651251 781.34272 700.732621 795.777075 715.166771 810.212045 729.600973 817.292339 747.030016 817.292339 768.000307 817.292339 788.971162 810.211482 806.673408 795.777075 821.106995 781.34272 835.540634 763.912294 842.621389 742.942362 842.621389 721.971763 842.621389 704.473498 835.608474 690.107597 821.106995 675.60535 806.468659 668.592333 788.698522 668.592333 768.000307L668.592333 768.000307Z" p-id="2999"></path></svg>