<?xml version="1.0" standalone="no"?><!DOCTYPE svg PUBLIC "-//W3C//DTD SVG 1.1//EN" "http://www.w3.org/Graphics/SVG/1.1/DTD/svg11.dtd"><svg t="1547314967953" class="icon" style="" viewBox="0 0 1024 1024" version="1.1" xmlns="http://www.w3.org/2000/svg" p-id="1218" xmlns:xlink="http://www.w3.org/1999/xlink" width="200" height="200"><defs><style type="text/css"></style></defs><path d="M151.277358 244.32945l-46.543965 0c-19.279062 0-34.907718-15.628656-34.907718-34.907718s15.628656-34.907718 34.907718-34.907718l46.543965 0c19.279062 0 34.907718 15.628656 34.907718 34.907718S170.556421 244.32945 151.277358 244.32945z" p-id="1219"></path><path d="M919.255343 244.32945 290.918469 244.32945c-19.279062 0-34.907718-15.628656-34.907718-34.907718s15.628656-34.907718 34.907718-34.907718l628.337898 0c19.279062 0 34.907718 15.628656 34.907718 34.907718S938.53543 244.32945 919.255343 244.32945z" p-id="1220"></path><path d="M151.277358 546.908742l-46.543965 0c-19.279062 0-34.907718-15.62968-34.907718-34.907718 0-19.279062 15.628656-34.907718 34.907718-34.907718l46.543965 0c19.279062 0 34.907718 15.628656 34.907718 34.907718C186.184052 531.279062 170.556421 546.908742 151.277358 546.908742z" p-id="1221"></path><path d="M919.255343 546.908742 290.918469 546.908742c-19.279062 0-34.907718-15.62968-34.907718-34.907718s15.628656-34.907718 34.907718-34.907718l628.337898 0c19.279062 0 34.907718 15.628656 34.907718 34.907718S938.53543 546.908742 919.255343 546.908742z" p-id="1222"></path><path d="M151.277358 849.440931l-46.543965 0c-19.279062 0-34.907718-15.628656-34.907718-34.907718s15.628656-34.907718 34.907718-34.907718l46.543965 0c19.279062 0 34.907718 15.628656 34.907718 34.907718S170.556421 849.440931 151.277358 849.440931z" p-id="1223"></path><path d="M919.255343 849.440931 290.918469 849.440931c-19.279062 0-34.907718-15.628656-34.907718-34.907718s15.628656-34.907718 34.907718-34.907718l628.337898 0c19.279062 0 34.907718 15.628656 34.907718 34.907718S938.53543 849.440931 919.255343 849.440931z" p-id="1224"></path></svg>