<?xml version="1.0" standalone="no"?><!DOCTYPE svg PUBLIC "-//W3C//DTD SVG 1.1//EN" "http://www.w3.org/Graphics/SVG/1.1/DTD/svg11.dtd"><svg t="1546517619167" class="icon" style="" viewBox="0 0 1024 1024" version="1.1" xmlns="http://www.w3.org/2000/svg" p-id="1273" xmlns:xlink="http://www.w3.org/1999/xlink" width="200" height="200"><defs><style type="text/css"></style></defs><path d="M1015.115617 454.00195 872.765841 311.652174c-5.190875-5.190875-12.078768-7.985962-19.365958-7.985962s-14.175083 2.795087-19.365958 7.985962L461.987912 683.698187c-3.294209 3.294209-5.689998 7.387015-6.987717 11.879119l-55.502437 195.855722c-2.695262 9.48333-0.099825 19.665432 6.887892 26.653149 5.091051 5.190875 12.178592 8.085787 19.465783 8.085787 2.395789 0 4.791577-0.299474 7.087541-0.898421L630.791187 871.767596c4.591928-1.297719 8.784558-3.693508 12.178592-7.087541L1015.115617 492.634042c5.190875-5.190875 7.985962-12.078768 7.985962-19.365958C1023.101579 465.980893 1020.206668 459.192825 1015.115617 454.00195zM506.210177 749.282901l70.875414 70.875414L478.558783 846.811464 506.210177 749.282901zM632.38838 785.020082l-90.640671-90.640671L853.399883 382.627413l90.640671 90.640671L632.38838 785.020082z" p-id="1274"></path><path d="M863.382336 859.988302c-17.668941 0-31.943849 14.274907-31.943849 31.943849 0 37.633847-30.546305 68.180152-68.180152 68.180152L64.786118 960.112303l0-896.124781 489.639306 0 191.862741 193.060636c12.478066 12.478066 32.64262 12.57789 45.220511 0.099825 12.478066-12.478066 12.57789-32.64262 0.099825-45.220511l-210.629752-211.927471L0.898421 0 0.898421 1024l762.359914 0c72.77208 0 132.067849-59.195945 132.067849-132.067849C895.326184 874.263209 881.051277 859.988302 863.382336 859.988302z" p-id="1275"></path><path d="M416.168454 193.759407 160.617664 193.759407c-17.668941 0-31.943849 14.274907-31.943849 31.943849s14.274907 31.943849 31.943849 31.943849l255.55079 0c17.668941 0 31.943849-14.274907 31.943849-31.943849S433.837395 193.759407 416.168454 193.759407z" p-id="1276"></path><path d="M416.168454 385.4225 160.617664 385.4225c-17.668941 0-31.943849 14.274907-31.943849 31.943849s14.274907 31.943849 31.943849 31.943849l255.55079 0c17.668941 0 31.943849-14.274907 31.943849-31.943849S433.837395 385.4225 416.168454 385.4225z" p-id="1277"></path><path d="M416.168454 577.085592 160.617664 577.085592c-17.668941 0-31.943849 14.274907-31.943849 31.943849s14.274907 31.943849 31.943849 31.943849l255.55079 0c17.668941 0 31.943849-14.274907 31.943849-31.943849S433.837395 577.085592 416.168454 577.085592z" p-id="1278"></path></svg>