<?xml version="1.0" standalone="no"?><!DOCTYPE svg PUBLIC "-//W3C//DTD SVG 1.1//EN" "http://www.w3.org/Graphics/SVG/1.1/DTD/svg11.dtd"><svg t="1545126278511" class="icon" style="" viewBox="0 0 1024 1024" version="1.1" xmlns="http://www.w3.org/2000/svg" p-id="1305" xmlns:xlink="http://www.w3.org/1999/xlink" width="128" height="128"><defs><style type="text/css"></style></defs><path d="M526.130587 213.025725c-7.812854-8.171561-20.457517-8.163385-28.262196 0L190.812487 534.217325c-3.908982 4.088846-7.064782 11.970172-7.064782 17.619545L183.747705 959.616766l223.808383 0L407.556088 718.503601c0-56.47125 45.744798-102.250794 102.187433-102.250794l4.512958 0c56.436503 0 102.187433 45.773413 102.187433 102.250794L616.443912 959.616766l223.808383 0L840.252295 551.83687c0-5.641198-3.162954-13.537852-7.064782-17.619545L526.130587 213.025725z" p-id="1306"></path><path d="M951.023138 491.245094 543.783856 77.72487c-17.529613-17.800431-46.061605-17.775904-63.567713 0L72.976862 491.245094c-11.571609 11.750451-11.439776 30.669924 0.294323 42.256862 11.735122 11.58796 30.629046 11.455106 42.200655-0.295345L512 130.563066l396.52816 402.643545c11.571609 11.750451 30.465533 11.882283 42.200655 0.295345C962.463936 521.915018 962.595768 502.995545 951.023138 491.245094z" p-id="1307"></path></svg>