<?xml version="1.0" standalone="no"?><!DOCTYPE svg PUBLIC "-//W3C//DTD SVG 1.1//EN" "http://www.w3.org/Graphics/SVG/1.1/DTD/svg11.dtd"><svg t="1547622794512" class="icon" style="" viewBox="0 0 1024 1024" version="1.1" xmlns="http://www.w3.org/2000/svg" p-id="4460" xmlns:xlink="http://www.w3.org/1999/xlink" width="200" height="200"><defs><style type="text/css"></style></defs><path d="M963.072 446.336c0-211.744-200.96-384-448-384s-448 172.256-448 384c0 116.48 63.008 226.048 172.896 300.672 14.656 9.984 34.528 6.144 44.448-8.512 9.952-14.624 6.112-34.528-8.512-44.448-92.032-62.496-144.832-152.768-144.832-247.712 0-176.448 172.256-320 384-320 211.744 0 384 143.552 384 320 0 176.448-172.256 320-384 320-1.984 0-3.68 0.768-5.568 1.12-15.104-2.688-30.464 5.216-35.776 20.192-6.144 17.376-46.368 46.656-94.144 73.792 17.472-58.208 9.088-70.688 3.52-78.976-6.72-9.984-17.92-15.936-29.92-15.936-17.664 0-32 14.304-32 32 0 5.824 1.536 11.264 4.256 15.936-3.232 18.24-17.216 60.864-33.088 99.872-4.928 12.096-1.984 25.984 7.36 35.072 6.112 5.888 14.112 8.992 22.272 8.992 4.384 0 8.8-0.896 12.992-2.752 36.48-16.256 147.68-69.12 187.616-125.664C766.144 826.496 963.072 655.904 963.072 446.336z" p-id="4461"></path><path d="M342.624 604.544c4.672 2.4 9.664 3.52 14.592 3.52 11.616 0 22.816-6.336 28.512-17.408l71.584-139.488 91.584 142.208c5.824 9.024 15.744 14.528 26.464 14.688 0.16 0 0.32 0 0.448 0 10.56 0 20.48-5.216 26.432-13.984l128.8-188.864c9.984-14.624 6.176-34.528-8.416-44.48-14.624-9.952-34.528-6.208-44.48 8.416l-101.632 148.992-95.456-148.288c-6.176-9.6-17.152-14.752-28.48-14.656-11.424 0.576-21.696 7.2-26.912 17.344l-96.896 188.896C320.672 577.184 326.88 596.48 342.624 604.544z" p-id="4462"></path></svg>