<?xml version="1.0" standalone="no"?><!DOCTYPE svg PUBLIC "-//W3C//DTD SVG 1.1//EN" "http://www.w3.org/Graphics/SVG/1.1/DTD/svg11.dtd"><svg t="1545298165367" class="icon" style="" viewBox="0 0 1024 1024" version="1.1" xmlns="http://www.w3.org/2000/svg" p-id="2691" xmlns:xlink="http://www.w3.org/1999/xlink" width="128" height="128"><defs><style type="text/css"></style></defs><path d="M890.488471 37.707294C886.874353 14.592 863.186824-1.490824 836.592941 2.605176L524.363294 51.486118a34.213647 34.213647 0 0 0-0.37647-4.427294L521.035294 28.340706A33.822118 33.822118 0 0 0 482.740706 0.391529a33.310118 33.310118 0 0 0-21.89553 13.387295 33.28 33.28 0 0 0-6.053647 24.922352l2.921412 18.748236c0.240941 1.460706 0.572235 2.906353 0.978824 4.306823L146.477176 110.622118a50.612706 50.612706 0 0 0-30.735058 16.805647c-8.086588 9.441882-11.685647 21.504-9.86353 33.069176 3.237647 20.705882 22.467765 35.749647 45.70353 35.749647 2.680471 0 5.421176-0.210824 8.192-0.63247l14.336-1.792c0 0.135529 2.831059 0.256 2.831058 0.391529v654.471529c0 94.629647 56.651294 171.550118 146.115765 171.550118h341.428706c95.533176 0 175.043765-84.434824 175.043765-171.550118v-654.45647c0-8.041412-5.300706-2.228706-13.357177-2.228706H261.662118l588.227764-98.243765c26.036706-4.080941 44.257882-32.617412 40.598589-56.048941zM613.647059 339.787294c0-12.047059 10.541176-21.835294 22.588235-21.835294s22.588235 9.788235 22.588235 21.835294v509.500235c0 12.047059-10.541176 21.835294-22.588235 21.835295s-22.588235-9.788235-22.588235-21.835295V339.787294z m-240.941177 0c0-12.047059 10.541176-21.835294 22.588236-21.835294s22.588235 9.788235 22.588235 21.835294v509.500235c0 12.047059-10.541176 21.835294-22.588235 21.835295s-22.588235-9.788235-22.588236-21.835295V339.787294z" p-id="2692"></path></svg>