<?xml version="1.0" standalone="no"?><!DOCTYPE svg PUBLIC "-//W3C//DTD SVG 1.1//EN" "http://www.w3.org/Graphics/SVG/1.1/DTD/svg11.dtd"><svg t="1546772880262" class="icon" style="" viewBox="0 0 1024 1024" version="1.1" xmlns="http://www.w3.org/2000/svg" p-id="2055" xmlns:xlink="http://www.w3.org/1999/xlink" width="200" height="200"><defs><style type="text/css"></style></defs><path d="M604.16 271.36c-40.96 40.96-40.96 107.52 0 151.04 40.96 40.96 107.52 40.96 151.04 0 40.96-40.96 40.96-107.52 0-151.04-43.52-40.96-110.08-40.96-151.04 0zM716.8 384c-20.48 20.48-53.76 20.48-74.24 0-20.48-20.48-20.48-53.76 0-74.24 20.48-20.48 53.76-20.48 74.24 0 20.48 20.48 20.48 53.76 0 74.24z m156.16-281.6H529.92c-28.16 0-33.28 12.8-58.88 38.4L133.12 478.72c-40.96 40.96-40.96 107.52 0 151.04l263.68 261.12c40.96 40.96 107.52 40.96 151.04 0l337.92-337.92c20.48-20.48 38.4-33.28 38.4-58.88V151.04c-2.56-25.6-25.6-48.64-51.2-48.64zM509.44 852.48c-20.48 20.48-53.76 20.48-74.24 0L171.52 591.36c-20.48-20.48-20.48-53.76 0-74.24l38.4-38.4 337.92 337.92-38.4 35.84z m363.52-384c0 12.8-12.8 33.28-25.6 46.08L583.68 778.24 245.76 440.32 509.44 179.2c12.8-12.8 30.72-28.16 46.08-28.16h294.4c12.8 0 25.6 10.24 25.6 25.6v291.84z" p-id="2056"></path></svg>